<?xml version="1.0" encoding="UTF-8"?>
<svg xmlns="http://www.w3.org/2000/svg" xmlns:xlink="http://www.w3.org/1999/xlink" width="14px" height="14px" viewBox="0 0 14 14" version="1.1">
<g id="surface1">
<path style="fill-rule:nonzero;fill:rgb(100%,100%,100%);fill-opacity:1;stroke-width:1;stroke-linecap:butt;stroke-linejoin:miter;stroke:rgb(100%,100%,100%);stroke-opacity:1;stroke-miterlimit:4;" d="M 412.142857 118.714286 C 409 117 405.857143 115.142857 402.714286 113.142857 C 393.857143 107.285714 385.714286 100.428571 378.428571 92.571429 C 360.428571 71.857143 353.571429 50.857143 351.142857 36.142857 L 351.285714 36.142857 C 349.142857 23.857143 350 16 350.142857 16 L 267.714286 16 L 267.714286 334.714286 C 267.714286 339 267.714286 343.285714 267.571429 347.428571 C 267.571429 348 267.428571 348.428571 267.428571 349 C 267.428571 349.285714 267.428571 349.428571 267.428571 349.714286 C 267.428571 349.857143 267.428571 349.857143 267.428571 349.857143 C 265.571429 373.142857 252.428571 394 232.142857 405.428571 C 221.714286 411.428571 210 414.428571 198 414.428571 C 159.571429 414.428571 128.571429 383.142857 128.571429 344.428571 C 128.571429 305.857143 159.571429 274.428571 198 274.428571 C 205.285714 274.428571 212.571429 275.571429 219.428571 277.857143 L 219.571429 194 C 177.142857 188.428571 134.285714 201 101.571429 228.428571 C 87.285714 240.857143 75.428571 255.571429 66.285714 272 C 62.714286 278 49.714286 302.142857 48 341.285714 C 47 363.428571 53.714286 386.428571 56.857143 396 L 56.857143 396.142857 C 58.857143 401.714286 66.714286 420.857143 79.285714 437 C 89.428571 449.857143 101.571429 461.285714 115 470.714286 L 115 470.428571 L 115.142857 470.714286 C 155.142857 497.714286 199.428571 496 199.428571 496 C 207 495.714286 232.714286 496 261.857143 482.142857 C 294.142857 466.857143 312.571429 444 312.571429 444 C 324.285714 430.428571 333.571429 414.857143 340.142857 398.142857 C 347.571429 378.571429 350.142857 355 350.142857 345.571429 L 350.142857 176.428571 C 351.142857 177.142857 364.428571 185.857143 364.428571 185.857143 C 364.428571 185.857143 383.571429 198.142857 413.571429 206.142857 C 435 211.857143 464 213.142857 464 213.142857 L 464 131.285714 C 453.857143 132.428571 433.285714 129.142857 412.142857 118.714286 Z M 412.142857 118.714286 " transform="matrix(0.0273438,0,0,0.0273438,0,0)"/>
</g>
</svg>
