<?xml version="1.0" encoding="UTF-8"?>
<svg xmlns="http://www.w3.org/2000/svg" xmlns:xlink="http://www.w3.org/1999/xlink" width="14px" height="14px" viewBox="0 0 14 14" version="1.1">
<g id="surface1">
<path style=" stroke:none;fill-rule:nonzero;fill:rgb(96.470588%,10.980392%,5.098039%);fill-opacity:1;" d="M 11.09375 2.046875 L 2.90625 2.046875 C 1.300781 2.046875 0 3.347656 0 4.953125 L 0 9.046875 C 0 10.652344 1.300781 11.953125 2.90625 11.953125 L 11.09375 11.953125 C 12.699219 11.953125 14 10.652344 14 9.046875 L 14 4.953125 C 14 3.347656 12.699219 2.046875 11.09375 2.046875 Z M 9.125 7.199219 L 5.296875 9.023438 C 5.195312 9.074219 5.078125 9 5.078125 8.886719 L 5.078125 5.121094 C 5.078125 5.003906 5.199219 4.929688 5.300781 4.984375 L 9.128906 6.921875 C 9.242188 6.980469 9.242188 7.144531 9.125 7.199219 Z M 9.125 7.199219 "/>
</g>
</svg>
